<svg width="120" height="175" viewBox="0 0 120 175" fill="none" xmlns="http://www.w3.org/2000/svg">
<rect width="15.4021" height="15.2918" rx="3" fill="#D9D9D9"/>
<rect x="26.1494" width="15.4021" height="15.2918" rx="3" fill="#00C414"/>
<rect x="52.2991" width="15.4021" height="15.2918" rx="3" fill="#00C414"/>
<rect x="78.4484" width="15.4021" height="15.2918" rx="3" fill="#00C414"/>
<rect x="104.598" width="15.4021" height="15.2918" rx="3" fill="#00C414"/>
<rect y="39.525" width="15.4021" height="15.2918" rx="3" fill="#D9D9D9"/>
<path d="M0 81.7132C0 80.4431 1.03302 79.4135 2.30731 79.4135H13.0948C14.3691 79.4135 15.4021 80.4431 15.4021 81.7132V92.4056C15.4021 93.6757 14.3691 94.7053 13.0948 94.7053H2.30731C1.03302 94.7053 0 93.6757 0 92.4056V81.7132Z" fill="#D9D9D9"/>
<path d="M0 120.875C0 119.605 1.03302 118.575 2.30731 118.575H13.0948C14.3691 118.575 15.4021 119.605 15.4021 120.875V131.567C15.4021 132.837 14.3691 133.867 13.0948 133.867H2.30731C1.03302 133.867 0 132.837 0 131.567V120.875Z" fill="#D9D9D9"/>
<rect x="26.1494" y="39.525" width="15.4021" height="15.2918" rx="3" fill="#00C414"/>
<path d="M26.1494 81.7132C26.1494 80.4431 27.1824 79.4135 28.4567 79.4135H39.2442C40.5185 79.4135 41.5516 80.4431 41.5516 81.7132V92.4056C41.5516 93.6757 40.5185 94.7053 39.2443 94.7053H28.4567C27.1824 94.7053 26.1494 93.6757 26.1494 92.4056V81.7132Z" fill="#00C414"/>
<path d="M26.1494 121.238C26.1494 119.968 27.1824 118.939 28.4567 118.939H39.2442C40.5185 118.939 41.5516 119.968 41.5516 121.238V131.931C41.5516 133.201 40.5185 134.23 39.2443 134.23H28.4567C27.1824 134.23 26.1494 133.201 26.1494 131.931V121.238Z" fill="#E60000"/>
<path d="M52.2991 120.875C52.2991 119.605 53.3321 118.575 54.6064 118.575H65.3939C66.6682 118.575 67.7012 119.605 67.7012 120.875V131.567C67.7012 132.837 66.6682 133.867 65.3939 133.867H54.6064C53.3321 133.867 52.2991 132.837 52.2991 131.567V120.875Z" fill="#E60000"/>
<rect x="52.2991" y="39.525" width="15.4021" height="15.2918" rx="3" fill="#00C414"/>
<path d="M52.2991 81.3497C52.2991 80.0797 53.3321 79.05 54.6064 79.05H65.3939C66.6682 79.05 67.7012 80.0797 67.7012 81.3497V92.0422C67.7012 93.3123 66.6682 94.3419 65.3939 94.3419H54.6064C53.3321 94.3419 52.2991 93.3123 52.2991 92.0422V81.3497Z" fill="#E60000"/>
<rect x="78.4484" y="39.525" width="15.4021" height="15.2918" rx="3" fill="#E60000"/>
<path d="M0 161.675C0 160.404 1.03302 159.375 2.30731 159.375H13.0948C14.3691 159.375 15.4021 160.404 15.4021 161.675V172.367C15.4021 173.637 14.3691 174.667 13.0948 174.667H2.30731C1.03302 174.667 0 173.637 0 172.367V161.675Z" fill="#E60000"/>
<path d="M52.2991 161.675C52.2991 160.404 53.3321 159.375 54.6064 159.375H65.3939C66.6682 159.375 67.7012 160.404 67.7012 161.675V172.367C67.7012 173.637 66.6682 174.667 65.3939 174.667H54.6064C53.3321 174.667 52.2991 173.637 52.2991 172.367V161.675Z" fill="#E60000"/>
<path d="M26.1494 161.675C26.1494 160.404 27.1824 159.375 28.4567 159.375H39.2442C40.5185 159.375 41.5516 160.404 41.5516 161.675V172.367C41.5516 173.637 40.5185 174.667 39.2443 174.667H28.4567C27.1824 174.667 26.1494 173.637 26.1494 172.367V161.675Z" fill="#E60000"/>
<path d="M78.4484 161.675C78.4484 160.404 79.4814 159.375 80.7557 159.375H91.5432C92.8175 159.375 93.8505 160.404 93.8505 161.675V172.367C93.8505 173.637 92.8175 174.667 91.5432 174.667H80.7557C79.4814 174.667 78.4484 173.637 78.4484 172.367V161.675Z" fill="#E60000"/>
<path d="M78.4484 120.875C78.4484 119.605 79.4814 118.575 80.7557 118.575H91.5432C92.8175 118.575 93.8505 119.605 93.8505 120.875V131.567C93.8505 132.837 92.8175 133.867 91.5432 133.867H80.7557C79.4814 133.867 78.4484 132.837 78.4484 131.567V120.875Z" fill="#00C414"/>
<rect x="105.098" y="40.025" width="14.4021" height="14.2918" rx="2.5" stroke="#D9D9D9"/>
<path fill-rule="evenodd" clip-rule="evenodd" d="M117.693 80.1801H106.905C106.056 80.1801 105.367 80.8665 105.367 81.7132V92.4056C105.367 93.2524 106.056 93.9388 106.905 93.9388H117.693C118.542 93.9388 119.231 93.2524 119.231 92.4056V81.7132C119.231 80.8665 118.542 80.1801 117.693 80.1801ZM106.905 79.4135C105.631 79.4135 104.598 80.4431 104.598 81.7132V92.4056C104.598 93.6757 105.631 94.7053 106.905 94.7053H117.693C118.967 94.7053 120 93.6757 120 92.4056V81.7132C120 80.4431 118.967 79.4135 117.693 79.4135H106.905Z" fill="#D9D9D9"/>
<path fill-rule="evenodd" clip-rule="evenodd" d="M117.693 119.705H106.905C106.056 119.705 105.367 120.392 105.367 121.238V131.931C105.367 132.777 106.056 133.464 106.905 133.464H117.693C118.542 133.464 119.231 132.777 119.231 131.931V121.238C119.231 120.392 118.542 119.705 117.693 119.705ZM106.905 118.939C105.631 118.939 104.598 119.968 104.598 121.238V131.931C104.598 133.201 105.631 134.23 106.905 134.23H117.693C118.967 134.23 120 133.201 120 131.931V121.238C120 119.968 118.967 118.939 117.693 118.939H106.905Z" fill="#D9D9D9"/>
<path fill-rule="evenodd" clip-rule="evenodd" d="M91.5432 80.1801H80.7557C79.9061 80.1801 79.2175 80.8665 79.2175 81.7132V92.4056C79.2175 93.2524 79.9061 93.9388 80.7557 93.9388H91.5432C92.3927 93.9388 93.0814 93.2524 93.0814 92.4056V81.7132C93.0814 80.8665 92.3927 80.1801 91.5432 80.1801ZM80.7557 79.4135C79.4814 79.4135 78.4484 80.4431 78.4484 81.7132V92.4056C78.4484 93.6757 79.4814 94.7053 80.7557 94.7053H91.5432C92.8175 94.7053 93.8505 93.6757 93.8505 92.4056V81.7132C93.8505 80.4431 92.8175 79.4135 91.5432 79.4135H80.7557Z" fill="#D9D9D9"/>
<path fill-rule="evenodd" clip-rule="evenodd" d="M117.693 160.141H106.905C106.056 160.141 105.367 160.828 105.367 161.675V172.367C105.367 173.214 106.056 173.9 106.905 173.9H117.693C118.542 173.9 119.231 173.214 119.231 172.367V161.675C119.231 160.828 118.542 160.141 117.693 160.141ZM106.905 159.375C105.631 159.375 104.598 160.404 104.598 161.675V172.367C104.598 173.637 105.631 174.667 106.905 174.667H117.693C118.967 174.667 120 173.637 120 172.367V161.675C120 160.404 118.967 159.375 117.693 159.375H106.905Z" fill="#D9D9D9"/>
</svg>
