<svg width="67" height="97" viewBox="0 0 67 97" fill="none" xmlns="http://www.w3.org/2000/svg">
<rect width="8.55348" height="8.49221" rx="3" fill="#D9D9D9"/>
<rect x="14.5219" width="8.55348" height="8.49221" rx="3" fill="#00C414"/>
<rect x="29.0439" width="8.55348" height="8.49221" rx="3" fill="#00C414"/>
<rect x="43.5658" width="8.55348" height="8.49221" rx="3" fill="#00C414"/>
<rect x="58.0876" width="8.55348" height="8.49221" rx="3" fill="#00C414"/>
<rect y="21.95" width="8.55348" height="8.49221" rx="3" fill="#D9D9D9"/>
<path d="M0 45.3789C0 44.6735 0.573679 44.1017 1.28135 44.1017H7.27213C7.9798 44.1017 8.55348 44.6735 8.55348 45.3789V51.3168C8.55348 52.0222 7.9798 52.594 7.27213 52.594H1.28135C0.57368 52.594 0 52.0222 0 51.3168V45.3789Z" fill="#D9D9D9"/>
<path d="M0 67.1269C0 66.4216 0.573679 65.8498 1.28135 65.8498H7.27213C7.9798 65.8498 8.55348 66.4216 8.55348 67.1269V73.0649C8.55348 73.7702 7.9798 74.342 7.27213 74.342H1.28135C0.57368 74.342 0 73.7702 0 73.0649V67.1269Z" fill="#D9D9D9"/>
<rect x="14.5219" y="21.95" width="8.55348" height="8.49221" rx="3" fill="#00C414"/>
<path d="M14.5219 45.3789C14.5219 44.6735 15.0955 44.1017 15.8032 44.1017H21.794C22.5016 44.1017 23.0753 44.6735 23.0753 45.3789V51.3168C23.0753 52.0222 22.5016 52.594 21.794 52.594H15.8032C15.0955 52.594 14.5219 52.0222 14.5219 51.3168V45.3789Z" fill="#00C414"/>
<path d="M14.5219 67.3289C14.5219 66.6235 15.0955 66.0518 15.8032 66.0518H21.794C22.5016 66.0518 23.0753 66.6235 23.0753 67.3289V73.2668C23.0753 73.9722 22.5016 74.544 21.794 74.544H15.8032C15.0955 74.544 14.5219 73.9722 14.5219 73.2668V67.3289Z" fill="#E60000"/>
<path d="M29.0439 67.1269C29.0439 66.4216 29.6176 65.8498 30.3253 65.8498H36.3161C37.0237 65.8498 37.5974 66.4216 37.5974 67.1269V73.0649C37.5974 73.7702 37.0237 74.342 36.3161 74.342H30.3253C29.6176 74.342 29.0439 73.7702 29.0439 73.0649V67.1269Z" fill="#E60000"/>
<rect x="29.0439" y="21.95" width="8.55348" height="8.49221" rx="3" fill="#00C414"/>
<path d="M29.0439 45.177C29.0439 44.4717 29.6176 43.8999 30.3253 43.8999H36.3161C37.0237 43.8999 37.5974 44.4717 37.5974 45.177V51.115C37.5974 51.8203 37.0237 52.3921 36.3161 52.3921H30.3253C29.6176 52.3921 29.0439 51.8203 29.0439 51.115V45.177Z" fill="#E60000"/>
<rect x="43.5658" y="21.95" width="8.55348" height="8.49221" rx="3" fill="#E60000"/>
<path d="M0 89.7849C0 89.0796 0.573679 88.5078 1.28135 88.5078H7.27213C7.9798 88.5078 8.55348 89.0796 8.55348 89.7849V95.7229C8.55348 96.4282 7.9798 97 7.27213 97H1.28135C0.57368 97 0 96.4282 0 95.7229V89.7849Z" fill="#E60000"/>
<path d="M29.0439 89.7849C29.0439 89.0796 29.6176 88.5078 30.3253 88.5078H36.3161C37.0237 88.5078 37.5974 89.0796 37.5974 89.7849V95.7229C37.5974 96.4282 37.0237 97 36.3161 97H30.3253C29.6176 97 29.0439 96.4282 29.0439 95.7229V89.7849Z" fill="#E60000"/>
<path d="M14.5219 89.7849C14.5219 89.0796 15.0955 88.5078 15.8032 88.5078H21.794C22.5016 88.5078 23.0753 89.0796 23.0753 89.7849V95.7229C23.0753 96.4282 22.5016 97 21.794 97H15.8032C15.0955 97 14.5219 96.4282 14.5219 95.7229V89.7849Z" fill="#E60000"/>
<path d="M43.5658 89.7849C43.5658 89.0796 44.1395 88.5078 44.8471 88.5078H50.8379C51.5456 88.5078 52.1193 89.0796 52.1193 89.7849V95.7229C52.1193 96.4282 51.5456 97 50.8379 97H44.8471C44.1395 97 43.5658 96.4282 43.5658 95.7229V89.7849Z" fill="#E60000"/>
<path d="M43.5658 67.1269C43.5658 66.4216 44.1395 65.8498 44.8471 65.8498H50.8379C51.5456 65.8498 52.1193 66.4216 52.1193 67.1269V73.0649C52.1193 73.7702 51.5456 74.342 50.8379 74.342H44.8471C44.1395 74.342 43.5658 73.7702 43.5658 73.0649V67.1269Z" fill="#00C414"/>
<rect x="58.5876" y="22.45" width="7.55348" height="7.49221" rx="2.5" stroke="#D9D9D9"/>
<path fill-rule="evenodd" clip-rule="evenodd" d="M65.3598 44.5275H59.369C58.8972 44.5275 58.5148 44.9086 58.5148 45.3789V51.3168C58.5148 51.7871 58.8972 52.1682 59.369 52.1682H65.3598C65.8316 52.1682 66.214 51.7871 66.214 51.3168V45.3789C66.214 44.9086 65.8316 44.5275 65.3598 44.5275ZM59.369 44.1017C58.6613 44.1017 58.0876 44.6735 58.0876 45.3789V51.3168C58.0876 52.0222 58.6613 52.594 59.369 52.594H65.3598C66.0674 52.594 66.6411 52.0222 66.6411 51.3168V45.3789C66.6411 44.6735 66.0674 44.1017 65.3598 44.1017H59.369Z" fill="#D9D9D9"/>
<path fill-rule="evenodd" clip-rule="evenodd" d="M65.3598 66.4775H59.369C58.8972 66.4775 58.5148 66.8587 58.5148 67.3289V73.2668C58.5148 73.7371 58.8972 74.1183 59.369 74.1183H65.3598C65.8316 74.1183 66.214 73.7371 66.214 73.2668V67.3289C66.214 66.8587 65.8316 66.4775 65.3598 66.4775ZM59.369 66.0518C58.6613 66.0518 58.0876 66.6235 58.0876 67.3289V73.2668C58.0876 73.9722 58.6613 74.544 59.369 74.544H65.3598C66.0674 74.544 66.6411 73.9722 66.6411 73.2668V67.3289C66.6411 66.6235 66.0674 66.0518 65.3598 66.0518H59.369Z" fill="#D9D9D9"/>
<path fill-rule="evenodd" clip-rule="evenodd" d="M50.8379 44.5275H44.8471C44.3754 44.5275 43.9929 44.9086 43.9929 45.3789V51.3168C43.9929 51.7871 44.3754 52.1682 44.8471 52.1682H50.8379C51.3097 52.1682 51.6922 51.7871 51.6922 51.3168V45.3789C51.6922 44.9086 51.3097 44.5275 50.8379 44.5275ZM44.8471 44.1017C44.1395 44.1017 43.5658 44.6735 43.5658 45.3789V51.3168C43.5658 52.0222 44.1395 52.594 44.8471 52.594H50.8379C51.5456 52.594 52.1193 52.0222 52.1193 51.3168V45.3789C52.1193 44.6735 51.5456 44.1017 50.8379 44.1017H44.8471Z" fill="#D9D9D9"/>
<path fill-rule="evenodd" clip-rule="evenodd" d="M65.3598 88.9335H59.369C58.8972 88.9335 58.5148 89.3147 58.5148 89.7849V95.7229C58.5148 96.1931 58.8972 96.5743 59.369 96.5743H65.3598C65.8316 96.5743 66.214 96.1931 66.214 95.7229V89.7849C66.214 89.3147 65.8316 88.9335 65.3598 88.9335ZM59.369 88.5078C58.6613 88.5078 58.0876 89.0796 58.0876 89.7849V95.7229C58.0876 96.4282 58.6613 97 59.369 97H65.3598C66.0674 97 66.6411 96.4282 66.6411 95.7229V89.7849C66.6411 89.0796 66.0674 88.5078 65.3598 88.5078H59.369Z" fill="#D9D9D9"/>
</svg>
