<svg width="150" height="197" viewBox="0 0 150 197" fill="none" xmlns="http://www.w3.org/2000/svg">
<rect width="20.5882" height="20.5084" rx="3" fill="#D9D9D9"/>
<rect x="32.3531" width="20.5882" height="20.5084" rx="3" fill="#00C414"/>
<rect x="64.7059" width="20.5882" height="20.5084" rx="3" fill="#00C414"/>
<rect x="97.0588" width="20.5882" height="20.5084" rx="3" fill="#00C414"/>
<rect x="129.412" width="20.5882" height="20.5084" rx="3" fill="#00C414"/>
<rect x="0.000244141" y="43.9464" width="20.5882" height="20.5084" rx="3" fill="#D9D9D9"/>
<rect x="0.000244141" y="87.8931" width="20.5882" height="20.5084" rx="3" fill="#D9D9D9"/>
<rect x="0.000244141" y="131.84" width="20.5882" height="20.5084" rx="3" fill="#D9D9D9"/>
<rect x="97.0588" y="43.9464" width="20.5882" height="20.5084" rx="3" fill="#E60000"/>
<rect x="32.3531" y="43.9464" width="20.5882" height="20.5084" rx="3" fill="#00C414"/>
<rect x="32.3531" y="87.8931" width="20.5882" height="20.5084" rx="3" fill="#00C414"/>
<rect x="32.3531" y="131.84" width="20.5882" height="20.5084" rx="3" fill="#E60000"/>
<rect x="64.7059" y="131.84" width="20.5882" height="20.5084" rx="3" fill="#E60000"/>
<rect x="64.7059" y="43.9464" width="20.5882" height="20.5084" rx="3" fill="#00C414"/>
<rect x="64.7059" y="87.8931" width="20.5882" height="20.5084" rx="3" fill="#E60000"/>
<rect x="97.0588" y="43.9464" width="20.5882" height="20.5084" rx="3" fill="#E60000"/>
<rect x="0.000244141" y="175.786" width="20.5882" height="20.5084" rx="3" fill="#E60000"/>
<rect x="64.7059" y="175.786" width="20.5882" height="20.5084" rx="3" fill="#E60000"/>
<rect x="32.3531" y="175.786" width="20.5882" height="20.5084" rx="3" fill="#E60000"/>
<rect x="97.0588" y="175.786" width="20.5882" height="20.5084" rx="3" fill="#E60000"/>
<rect x="97.0588" y="131.84" width="20.5882" height="20.5084" rx="3" fill="#00C414"/>
<rect x="129.912" y="44.4464" width="19.5882" height="19.5084" rx="2.5" stroke="#D9D9D9"/>
<rect x="129.912" y="44.4464" width="19.5882" height="19.5084" rx="2.5" stroke="#D9D9D9"/>
<rect x="129.912" y="44.4464" width="19.5882" height="19.5084" rx="2.5" stroke="#D9D9D9"/>
<rect x="129.912" y="44.4464" width="19.5882" height="19.5084" rx="2.5" stroke="#D9D9D9"/>
<path d="M132.412 87.8069H147C148.381 87.8069 149.5 88.9262 149.5 90.3069V104.815C149.5 106.196 148.381 107.315 147 107.315H132.412C131.031 107.315 129.912 106.196 129.912 104.815V90.3069C129.912 88.9262 131.031 87.8069 132.412 87.8069Z" stroke="#D9D9D9"/>
<path d="M99.4706 87.8069H114.059C115.439 87.8069 116.559 88.9262 116.559 90.3069V104.815C116.559 106.196 115.439 107.315 114.059 107.315H99.4706C98.0899 107.315 96.9706 106.196 96.9706 104.815V90.3069C96.9706 88.9262 98.0899 87.8069 99.4706 87.8069Z" stroke="#D9D9D9"/>
<path d="M132.412 176.286H147C148.381 176.286 149.5 177.405 149.5 178.786V193.294C149.5 194.675 148.381 195.794 147 195.794H132.412C131.031 195.794 129.912 194.675 129.912 193.294V178.786C129.912 177.405 131.031 176.286 132.412 176.286Z" stroke="#D9D9D9"/>
<rect x="129.912" y="132.925" width="19.5882" height="19.5084" rx="2.5" stroke="#D9D9D9"/>
</svg>
